<svg width="58" height="58" viewBox="0 0 58 58" fill="none" xmlns="http://www.w3.org/2000/svg">
<mask id="mask0_1824_2198" style="mask-type:luminance" maskUnits="userSpaceOnUse" x="7" y="9" width="44" height="42">
<path d="M50.2333 9.19629H7.85425V50.8894H50.2333V9.19629Z" fill="white"/>
</mask>
<g mask="url(#mask0_1824_2198)">
<path d="M50.2333 14.1926L33.8607 9.19629L29.0438 15.8395L24.2229 9.19629L7.85425 14.1926L11.7141 30.8684L19.8766 31.7177L16.531 39.2102L17.8788 40.4702L29.0398 50.8935L41.5486 39.2142L38.2031 31.7217L46.3654 30.8723L50.2253 14.1966L50.2333 14.1926ZM41.1579 24.7914L34.8536 25.2659L36.2452 27.6704L33.7212 32.0447H30.9459L33.6893 37.7388L29.0478 42.0734L24.4064 37.7388L27.1498 32.0407H24.3745L21.8504 27.6704L23.242 25.2659L16.9378 24.7914L15.5063 18.6068L21.5792 16.7526L25.1401 21.9762L26.5277 19.5718H31.5759L32.9635 21.9762L36.5244 16.7526L42.5975 18.6068L41.166 24.7914H41.1579Z" fill="currentColor"/>
</g>
</svg>
