<svg width="58" height="58" viewBox="0 0 58 58" fill="none" xmlns="http://www.w3.org/2000/svg">
<path d="M35.1281 32.7092C30.9908 32.7092 26.9993 32.7092 22.9835 32.7092C23.3964 31.1466 23.8579 29.6487 24.1899 28.1185C24.9671 24.5318 25.0967 20.9046 24.8619 17.2532C24.8133 16.4435 24.87 15.5529 25.1614 14.8C26.2625 11.9095 27.477 9.0677 28.651 6.20158C28.7238 6.02346 28.8453 5.87773 29.0639 5.52148C29.8978 7.36746 30.6508 9.04342 31.3957 10.7194C31.5738 11.1161 31.7033 11.5371 31.8652 11.9419C32.8125 14.1927 33.3064 16.4516 33.1202 18.9858C32.772 23.6169 33.4117 28.1914 35.1281 32.7092ZM40.6174 22.6373C40.326 23.3174 40.0993 24.0298 39.743 24.6695C39.1277 25.7625 39.2087 26.6531 39.8888 27.7785C41.8886 31.0899 39.403 35.1948 35.5005 35.2271C34.3427 35.2352 33.1769 35.2271 31.8248 35.2271C32.6749 36.7493 33.5169 38.0528 34.1484 39.4535C34.7476 40.7975 35.6139 41.1375 37.0631 41.2023C39.1277 41.2994 40.6822 40.5708 42.1558 39.2996C43.8479 37.8423 45.2 36.1906 45.7829 33.9722C46.9083 29.7054 43.4269 24.6209 40.6174 22.6373ZM23.1859 35.2433C21.348 35.3891 19.9312 34.5632 18.6762 33.365C17.227 31.9724 16.9112 30.3045 17.7289 28.4667C17.9718 27.9161 18.3362 27.4141 18.5953 26.8717C18.7167 26.6288 18.8381 26.2887 18.7572 26.062C18.3362 24.9043 17.8504 23.7789 17.3403 22.5239C15.7048 23.9084 14.4499 25.4305 13.4702 27.1631C12.361 29.1144 11.6971 31.1871 12.1181 33.454C12.7901 37.1136 15.3891 39.2025 18.3281 40.9999C18.5143 41.1132 18.7815 41.1132 19.0082 41.1213C20.085 41.1294 21.1618 41.1456 22.2386 41.1132C22.4977 41.1051 22.8863 40.9999 22.9997 40.8137C24.0522 39.0244 25.0562 37.2027 26.1735 35.2271C25.0481 35.2271 24.1089 35.1705 23.1859 35.2433ZM28.9991 36.1016C27.4689 38.5467 26.052 40.7975 24.6675 43.0645C24.5299 43.2912 24.4813 43.6393 24.5218 43.9146C24.8376 45.8415 25.0886 47.7928 25.5582 49.6792C25.8415 50.837 26.1492 52.2296 27.6875 52.4158C28.6024 52.521 29.574 52.5291 30.4646 52.3267C30.9827 52.2053 31.6709 51.6709 31.8005 51.1932C32.4644 48.6996 32.9744 46.1735 33.5169 43.6474C33.5493 43.5017 33.4845 43.3074 33.3955 43.1778C31.9705 40.8541 30.5293 38.5548 28.9991 36.1016Z" fill="currentColor"/>
</svg>
