<svg width="58" height="58" viewBox="0 0 58 58" fill="none" xmlns="http://www.w3.org/2000/svg">
<path d="M42.3723 23.0479C45.4012 21.1146 49.1913 17.7715 49.1913 8.854C49.1913 8.854 39.8227 18.6778 31.0744 18.6778V15.089L33.487 12.7368L29.0001 8.854L24.5131 12.7368L26.9258 15.089V18.6778C18.1774 18.6778 8.80884 8.854 8.80884 8.854C8.80884 17.7715 12.599 21.1146 15.6279 23.0479C21.9233 22.4961 24.9481 23.4386 24.2715 26.2298C23.6472 28.8076 16.8684 27.2569 13.2474 25.3276C13.2474 25.3276 14.2302 31.1961 18.8018 33.3791H22.0199C22.0079 34.9178 20.8277 36.549 17.9358 39.5658L27.1433 51.1457V44.0407L24.9804 41.9301L27.2037 40.0089L27.9287 33.3751L29.0041 23.5151L30.0795 33.3751L30.8045 40.0089L33.0279 41.9301L30.8649 44.0407V51.1457L40.0724 39.5658C37.1805 36.549 36.0004 34.9178 35.9883 33.3791H39.2065C43.778 31.1961 44.7608 25.3276 44.7608 25.3276C41.1398 27.2569 34.3611 28.8076 33.7368 26.2298C33.0601 23.4386 36.0849 22.4961 42.3804 23.0479H42.3723Z" fill="currentColor"/>
</svg>
