<svg width="58" height="58" viewBox="0 0 58 58" fill="none" xmlns="http://www.w3.org/2000/svg">
<mask id="mask0_1824_2206" style="mask-type:luminance" maskUnits="userSpaceOnUse" x="9" y="9" width="40" height="40">
<path d="M49 9H9V49H49V9Z" fill="white"/>
</mask>
<g mask="url(#mask0_1824_2206)">
<path d="M25.8584 32.1417C28.6363 34.9196 33.1424 34.9196 35.9203 32.1417C35.9915 32.0705 36.0515 31.9955 36.1189 31.9206C35.0093 29.8475 33.5885 27.9018 31.8415 26.1549C30.0946 24.4079 28.1489 22.9871 26.0758 21.8774C26.0009 21.9449 25.9259 22.0049 25.8547 22.0761C23.0768 24.854 23.0768 29.3601 25.8547 32.138L25.8584 32.1417Z" fill="currentColor"/>
<path d="M21.2099 36.7899C16.5164 32.0964 15.9503 24.8162 19.5117 19.5003C16.5201 18.878 13.4348 18.8218 10.4245 19.3204C7.46296 27.1367 9.11994 36.3176 15.403 42.6006C21.686 48.8836 30.8669 50.5406 38.6832 47.5791C39.1856 44.5687 39.1256 41.4835 38.5033 38.4919C33.1837 42.0495 25.9072 41.4872 21.2137 36.7937L21.2099 36.7899Z" fill="currentColor"/>
<path d="M12.6812 14.9344C16.0738 14.7207 19.4928 15.1031 22.773 16.089C25.6109 16.94 28.34 18.2484 30.8517 19.9953C32.2238 20.9513 33.5321 22.0272 34.7505 23.2493C35.9689 24.4714 37.0523 25.7798 38.0045 27.1481C39.7552 29.6598 41.0598 32.3889 41.9108 35.2268C42.8967 38.507 43.2753 41.926 43.0654 45.3186L48.9998 39.4292L46.3794 11.6204L18.5706 9L12.6812 14.9344Z" fill="currentColor"/>
</g>
</svg>
