<svg width="58" height="58" viewBox="0 0 58 58" fill="none" xmlns="http://www.w3.org/2000/svg">
<mask id="mask0_1824_2214" style="mask-type:luminance" maskUnits="userSpaceOnUse" x="11" y="5" width="36" height="48">
<path d="M46.3242 5.9707H11.7561V52.1391H46.3242V5.9707Z" fill="white"/>
</mask>
<g mask="url(#mask0_1824_2214)">
<path d="M45.8283 28.896C45.9809 28.8069 46.1293 28.7136 46.2777 28.6204C46.4049 27.0303 46.2607 25.3259 45.8197 23.5451C45.1159 24.5542 44.2891 25.3174 43.5853 25.7584C42.7416 26.3053 42.0802 26.4198 41.9656 26.2078C41.7283 25.7965 43.4115 24.338 44.7216 22.023C44.8658 21.7771 44.993 21.5227 45.1159 21.2641C44.2891 19.0636 43.0299 16.774 41.2957 14.4632L35.0546 29.0401C36.988 29.5659 38.739 30.876 38.031 32.7839C37.2212 34.9674 30.9631 40.013 29.0424 41.5266C27.1217 40.013 20.8594 34.9674 20.0537 32.7839C19.35 30.8802 21.0968 29.5659 23.0302 29.0401L16.789 14.459C15.0549 16.7698 13.7956 19.0593 12.9689 21.2598C13.0918 21.5184 13.219 21.7686 13.3632 22.0188C14.6733 24.3337 16.3566 25.7965 16.1191 26.2036C16.0047 26.4156 15.3432 26.2969 14.4995 25.7541C13.7915 25.3132 12.9689 24.55 12.265 23.5409C11.8199 25.3259 11.6715 27.0303 11.7986 28.6204C11.9471 28.7136 12.0955 28.8111 12.2481 28.896C14.2366 30.0577 15.9623 30.8209 15.8775 31.2236C15.835 31.4314 15.2924 31.5119 14.4741 31.3635C13.8083 31.249 12.9689 30.9777 12.0912 30.5453C12.9222 34.0559 15.2203 36.8288 18.697 38.351C22.2501 39.9027 25.1289 42.7774 26.4094 44.1978H26.3882L23.7425 46.8435L29.0339 52.1349L34.3253 46.8435L31.6796 44.1978H31.6584C32.9389 42.7774 35.822 39.9027 39.3708 38.351C42.8476 36.8288 45.1498 34.0602 45.9766 30.5453C45.099 30.9777 44.2552 31.249 43.5938 31.3635C42.7798 31.5077 42.2328 31.4314 42.1904 31.2236C42.1056 30.8166 43.8312 30.0534 45.8197 28.896H45.8283Z" fill="currentColor"/>
<path d="M34.8085 37.1553C32.5613 34.9081 31.5607 31.6985 32.133 28.5695L35.1477 12.1101L29.038 5.9707L22.9325 12.1101L25.947 28.5695C26.5194 31.6985 25.5188 34.9039 23.2717 37.1553L17.1917 43.2354L19.8373 45.881L29.038 36.6804L38.2386 45.881L40.8843 43.2354L34.8042 37.1553H34.8085Z" fill="currentColor"/>
</g>
</svg>
