<svg width="58" height="58" viewBox="0 0 58 58" fill="none" xmlns="http://www.w3.org/2000/svg">
<mask id="mask0_1824_2221" style="mask-type:luminance" maskUnits="userSpaceOnUse" x="12" y="7" width="34" height="44">
<path d="M45.4536 7.52393H12.5466V50.4761H45.4536V7.52393Z" fill="white"/>
</mask>
<g mask="url(#mask0_1824_2221)">
<path d="M38.3768 7.52393C39.2709 11.8498 38.5339 16.4696 36.1655 20.3081H21.6615C19.3214 16.518 18.5762 11.9666 19.418 7.68906C15.3298 11.02 12.6433 16.4213 12.5466 22.5395L18.105 23.768C22.1448 24.6621 26.2814 26.825 29.0001 29.9425C31.7189 26.825 35.8554 24.6581 39.8993 23.768L45.4576 22.5395C45.3609 16.3166 42.5858 10.8348 38.3808 7.52393H38.3768Z" fill="currentColor"/>
<path d="M32.8548 14.4557C32.8548 11.5275 31.3122 8.9699 29.0002 7.52393C26.6883 8.9699 25.1497 11.5275 25.1497 14.4557C25.1497 14.4839 25.1497 14.5161 25.1497 14.5443C25.202 19.5307 32.8024 19.5307 32.8548 14.5443C32.8548 14.5161 32.8548 14.4839 32.8548 14.4557Z" fill="currentColor"/>
<path d="M34.8968 29.2017C31.892 30.5389 29.0001 34.8486 29.0001 34.8486C29.0001 34.8486 26.1081 30.5389 23.1034 29.2017C21.6373 35.7347 18.8018 43.2505 13.3884 43.2505L18.0244 50.4804H39.9758L44.6118 43.2505C39.2025 43.2505 36.3629 35.7347 34.8968 29.2017Z" fill="currentColor"/>
</g>
</svg>
