<svg width="58" height="58" viewBox="0 0 58 58" fill="none" xmlns="http://www.w3.org/2000/svg">
<mask id="mask0_1824_2120" style="mask-type:luminance" maskUnits="userSpaceOnUse" x="7" y="7" width="44" height="44">
<path d="M50.357 7.854H7.85425V50.3567H50.357V7.854Z" fill="white"/>
</mask>
<g mask="url(#mask0_1824_2120)">
<path d="M35.3041 18.5922C33.4858 17.5156 31.3684 16.8936 29.1035 16.8936L32.0543 22.0055L36.7236 30.0922L39.6744 35.2042C40.7152 33.4098 41.3133 31.3243 41.3133 29.1033C41.3133 29.0674 41.3133 29.0315 41.3133 28.9956C41.2734 24.5695 38.8689 20.6976 35.3041 18.5882V18.5922Z" fill="currentColor"/>
<path d="M16.8979 28.9995C16.8979 29.0354 16.8979 29.0713 16.8979 29.1072C16.8979 31.3282 17.4961 33.4097 18.5368 35.2081L21.4876 30.0961L26.1569 22.0094L29.1077 16.8975C26.8468 16.8975 24.7254 17.5195 22.9071 18.5961C19.3423 20.7055 16.9378 24.5774 16.8979 29.0035V28.9995Z" fill="currentColor"/>
<path d="M29.1036 7.854C17.3884 7.854 7.85425 17.3881 7.85425 29.1034C7.85425 32.9673 8.89499 36.5919 10.7053 39.7181C11.5347 41.1456 12.5196 42.4695 13.6481 43.6658L16.0366 39.5307C14.948 38.171 14.0668 36.6398 13.4447 34.981C12.7549 33.1507 12.3761 31.1729 12.3761 29.1034C12.3761 20.8134 18.4411 13.915 26.3642 12.5991C27.2574 12.4516 28.1706 12.3718 29.1076 12.3718C30.0447 12.3718 30.9578 12.4516 31.851 12.5991C39.7782 13.911 45.839 20.8094 45.839 29.1034C45.839 31.1729 45.4604 33.1507 44.7704 34.981C44.1445 36.6398 43.2673 38.171 42.1786 39.5307L44.567 43.6658C45.6916 42.4736 46.6804 41.1496 47.5097 39.7181C49.3202 36.5919 50.361 32.9673 50.361 29.1034C50.357 17.3881 40.8228 7.854 29.1036 7.854Z" fill="currentColor"/>
<path d="M29.1036 25.9331L22.0577 38.1388C18.9554 43.5141 22.7635 50.3166 28.972 50.3565C29.0159 50.3565 29.0598 50.3565 29.1036 50.3565C29.1475 50.3565 29.1913 50.3565 29.2352 50.3565C35.4437 50.3166 39.2518 43.5141 36.1495 38.1388L29.1036 25.9331Z" fill="currentColor"/>
</g>
</svg>
