<svg width="58" height="58" viewBox="0 0 58 58" fill="none" xmlns="http://www.w3.org/2000/svg">
<path d="M48.7533 35.5357C46.3326 32.9862 47.3315 27.6252 47.3315 27.6252L40.7017 34.1824C40.7017 34.1824 48.9305 40.7155 42.2806 42.0607C30.2899 42.2823 19.3746 33.4332 16.0155 25.0031C15.6731 24.1452 16.0276 23.4645 16.5471 22.965C17.099 22.4374 16.9298 21.515 16.2008 21.2855C14.7185 20.8182 13.2605 19.9442 13.772 18.3452C14.6581 15.5821 22.7902 17.5034 22.4358 15.6909C22.2585 14.7967 21.7067 13.6125 24.6591 14.112C27.6115 14.6114 30.7008 14.6477 27.8773 12.5734C25.3237 10.6924 20.4501 9.38337 17.2601 9.86268C20.1359 13.0728 14.936 15.1753 11.2788 12.5009C11.2788 12.5009 9.02729 15.6345 8.88229 18.1438C8.73729 20.6531 10.437 20.8907 10.7834 23.9438C11.0734 26.4773 10.296 29.7921 14.2755 31.1092C15.7698 31.6046 17.8763 32.4585 18.2026 34.9638C18.5691 37.743 19.423 43.8612 25.2834 43.0032C27.2167 42.7213 30.0563 40.5825 35.663 44.272C33.6692 45.3031 31.313 45.9717 26.6166 44.8117C26.3588 44.7473 26.1292 44.9406 26.3105 45.1299C29.859 48.8516 36.8471 50.0881 39.5337 46.9948C41.0924 47.7681 42.5303 48.2474 44.0408 48.2071C48.0806 48.0984 46.0103 43.7484 48.5559 42.4152C52.2856 40.4657 50.7712 37.6584 48.7573 35.5357H48.7533Z" fill="currentColor"/>
<path d="M51.1618 20.9556H42.9492L28.2317 35.6731C29.9435 36.7606 31.7882 37.687 33.7296 38.3918L51.1659 20.9556H51.1618Z" fill="currentColor"/>
<path d="M18.7908 25.7967C20.269 28.6322 22.6534 31.4638 25.638 33.8361L40.7019 18.7682L37.4595 7.12793L18.7908 25.7967Z" fill="currentColor"/>
<path d="M16.0962 36.7041L14.5898 38.2145C13.1881 39.6162 10.9044 39.6162 9.50269 38.2145V42.774L15.5806 48.8559H20.1441C19.4392 48.151 19.0888 47.2327 19.0888 46.3104C19.0888 45.4605 19.3949 44.6026 20.0031 43.9219C19.6607 43.6762 19.3345 43.4023 19.0284 43.0922C17.3327 41.3723 16.4466 38.9073 16.0962 36.7081V36.7041Z" fill="currentColor"/>
</svg>
