<svg width="58" height="58" viewBox="0 0 58 58" fill="none" xmlns="http://www.w3.org/2000/svg">
<path d="M20.1752 20.3804V13.7063L26.2571 16.5016C27.0184 14.6408 26.8734 12.4497 25.6771 10.6492C23.7559 7.76536 19.861 6.988 16.9771 8.90925C14.0932 10.8305 13.3159 14.7254 15.2371 17.6092C16.3891 19.3372 18.2499 20.2958 20.1792 20.3844L20.1752 20.3804Z" fill="currentColor"/>
<path d="M40.7653 23.1679L35.2593 20.6384L42.2958 15.9501L36.2582 13.2998L13.5415 28.4402V35.1143L20.7633 30.3011L20.8278 36.2662L44.4547 50.1419L40.7612 23.1638L40.7653 23.1679ZM28.0133 25.4718L30.7925 23.619L36.2985 26.1484L39.6254 42.8879L28.0173 25.4677L28.0133 25.4718Z" fill="currentColor"/>
</svg>
