<svg width="58" height="58" viewBox="0 0 58 58" fill="none" xmlns="http://www.w3.org/2000/svg">
<path d="M20.006 29.9668C20.8881 29.0365 21.9675 28.247 23.1919 27.6428C23.0953 28.0376 23.0389 28.4484 23.0389 28.8753C23.0389 31.9284 25.7093 34.4015 29 34.4015C31.7188 34.4015 34.0066 32.7138 34.7235 30.4059C34.1073 30.9859 33.2493 31.3443 32.2988 31.3443C30.4178 31.3443 28.8913 29.9306 28.8913 28.1826C28.8913 27.4857 29.1369 26.8453 29.5478 26.3257C33.2332 26.4707 36.4675 28.0778 38.4492 30.4824C38.5781 30.3012 38.7029 30.1159 38.8157 29.9266C40.4953 27.1112 40.2174 23.7238 38.421 20.8802C38.1512 20.4532 37.845 20.0384 37.5067 19.6356C36.8985 19.0637 36.3266 18.5118 35.7788 17.9681C31.4127 13.6382 29 10.2066 29 7.8584C29 7.8584 25.3147 11.1168 23.3974 15.7367C22.6241 17.6016 22.1367 19.684 22.2978 21.867C22.2978 21.867 20.1631 18.8261 18.9991 16.9652C14.8142 22.2577 17.1744 27.9812 20.006 29.9668Z" fill="currentColor"/>
<path d="M41.8004 23.1637C41.8004 23.1637 43.8706 21.0491 42.5011 17.5248C40.8176 13.187 34.5986 12.3652 34.5986 12.3652C34.5986 12.3652 40.4913 17.3114 41.8004 23.1637Z" fill="currentColor"/>
<path d="M44.5876 28.3272C44.4547 27.2477 44.209 26.285 43.8827 25.415C42.3482 32.4073 36.2702 37.6273 29.0001 37.6273C21.7299 37.6273 15.6521 32.4033 14.1174 25.415C13.7912 26.285 13.5456 27.2477 13.4126 28.3272C12.9937 31.7347 15.4144 35.9799 18.8541 38.5698C25.1012 43.2702 26.6358 43.093 26.5673 43.7898C26.5231 44.2449 25.8786 44.9175 25.0528 44.8289C24.0258 44.6638 22.8215 43.9912 21.4521 43.5119L22.8215 46.5972C23.3934 47.886 28.9961 50.1497 28.9961 50.1497C28.9961 50.1497 34.5987 47.886 35.1707 46.5972L36.5401 43.5119C35.1747 43.9912 33.9703 44.6638 32.9393 44.8289C32.1136 44.9175 31.4691 44.2489 31.4248 43.7898C31.3563 43.097 32.8909 43.2702 39.1381 38.5698C42.5777 35.9799 44.9984 31.7347 44.5796 28.3272H44.5876Z" fill="currentColor"/>
</svg>
