<svg width="58" height="58" viewBox="0 0 58 58" fill="none" xmlns="http://www.w3.org/2000/svg">
<mask id="mask0_1824_2144" style="mask-type:luminance" maskUnits="userSpaceOnUse" x="5" y="5" width="48" height="48">
<path d="M53 5H5V53H53V5Z" fill="white"/>
</mask>
<g mask="url(#mask0_1824_2144)">
<path d="M30.4534 27.3428C29.9645 27.4017 29.471 27.4333 28.9686 27.4333C28.4661 27.4333 27.9682 27.4017 27.4837 27.3428L23.3386 32.6591L28.9686 52.6333L34.5985 32.6591L30.4534 27.3428Z" fill="currentColor"/>
<path d="M19.8666 23.8829H12.4333C14.3713 27.3652 17.3545 30.1773 20.9522 31.8799L23.4778 26.4188C22.1321 25.7803 20.9119 24.9199 19.8666 23.8784V23.8829Z" fill="currentColor"/>
<path d="M38.0707 23.8829H45.504C43.566 27.3652 40.5829 30.1773 36.9851 31.8799L34.4595 26.4188C35.8053 25.7803 37.0254 24.9199 38.0707 23.8784V23.8829Z" fill="currentColor"/>
<path d="M41.9197 14.4238C42.0229 16.4299 41.507 18.2366 40.9597 19.568L46.4146 22.0223L52.9373 15.2888V14.4238H41.9197Z" fill="currentColor"/>
<path d="M16.0176 14.4238C15.9144 16.4299 16.4303 18.2366 16.9776 19.568L11.5226 22.0223L5 15.2888V14.4238H16.0176Z" fill="currentColor"/>
<path d="M28.9685 9.80906C31.5569 9.80906 33.6653 11.9374 33.6653 14.5502C33.6653 17.163 31.5569 19.2914 28.9685 19.2914C26.3801 19.2914 24.2717 17.163 24.2717 14.5502C24.2717 11.9374 26.3801 9.80906 28.9685 9.80906ZM28.9685 5C23.7512 5 19.5076 9.28378 19.5076 14.5502C19.5076 19.8166 23.7512 24.1004 28.9685 24.1004C34.1857 24.1004 38.4294 19.8166 38.4294 14.5502C38.4294 9.28378 34.1857 5 28.9685 5Z" fill="currentColor"/>
</g>
</svg>
