<svg width="58" height="58" viewBox="0 0 58 58" fill="none" xmlns="http://www.w3.org/2000/svg">
<mask id="mask0_1824_2158" style="mask-type:luminance" maskUnits="userSpaceOnUse" x="7" y="8" width="43" height="42">
<path d="M49.9473 8.05957H7.85425V49.7306H49.9473V8.05957Z" fill="white"/>
</mask>
<g mask="url(#mask0_1824_2158)">
<path d="M9.75684 42.6329L12.287 49.7303H18.867V45.4511L22.0327 42.7868L19.0683 39.041L9.75684 42.6329Z" fill="currentColor"/>
<path d="M32.7297 42.7868L35.8994 45.4511V49.7303H42.4795L45.0058 42.6329L35.698 39.041L32.7297 42.7868Z" fill="currentColor"/>
<path d="M44.8752 16.8737C42.6136 16.8737 40.4466 17.7855 38.8676 19.3999L37.3282 20.9748L35.5677 18.7526V15.2908C35.5677 11.3041 32.3231 8.06348 28.3403 8.06348H15.0816C11.0989 8.05953 7.85425 11.3002 7.85425 15.2869V25.3168C7.85425 29.3035 11.0989 32.5442 15.0816 32.5442H18.9933L25.5181 40.7819H29.2482L37.3282 30.5784L38.8676 32.1534C40.4502 33.7678 42.6176 34.6796 44.8752 34.6796H49.9473V16.8737H44.8752ZM16.8302 16.9566V27.4286H15.0816C13.9172 27.4286 12.9738 26.4852 12.9738 25.3207V15.2908C12.9738 14.1264 13.9172 13.183 15.0816 13.183H28.3364C29.5008 13.183 30.4442 14.1264 30.4442 15.2908V16.9605H16.8302V16.9566Z" fill="currentColor"/>
</g>
</svg>
