<svg width="58" height="58" viewBox="0 0 58 58" fill="none" xmlns="http://www.w3.org/2000/svg">
<mask id="mask0_1824_2190" style="mask-type:luminance" maskUnits="userSpaceOnUse" x="8" y="8" width="42" height="42">
<path d="M49.183 8.15234H8.81665V49.8479H49.183V8.15234Z" fill="white"/>
</mask>
<g mask="url(#mask0_1824_2190)">
<path d="M27.4691 16.0226C30.4296 16.1958 32.8341 18.4634 33.0878 21.2143C33.3497 24.054 31.1787 26.3578 28.2303 26.4142V26.3941C27.2073 26.3941 26.3776 25.6006 26.3776 24.6218C26.3776 23.6431 27.2073 22.8497 28.2303 22.8497C29.2534 22.8497 30.0831 22.0843 30.0831 21.0774C30.0831 19.6597 28.8346 18.4151 26.7038 18.4151C24.9276 18.4151 23.3567 19.0998 22.2088 20.2034C20.8797 21.4842 20.1224 23.329 20.3077 25.363C20.6541 29.1411 24.3436 32.2263 28.4116 32.2263C33.7484 32.2263 38.042 27.969 38.042 22.8456C38.042 17.7223 33.6477 13.4609 28.2263 13.4609C26.0191 13.4609 25.6928 14.1174 25.6365 14.7256C25.5801 15.3298 25.8781 15.9259 27.4651 16.0186L27.4691 16.0226Z" fill="currentColor"/>
<path d="M35.4766 45.7315C41.3007 48.4301 44.1523 47.5843 49.1831 39.3234C39.6171 37.8854 37.14 39.5328 35.4766 45.7315Z" fill="currentColor"/>
<path d="M39.5809 36.1897C47.9224 30.1803 49.1107 22.4953 40.7288 12.9293C41.0349 12.313 41.1558 11.588 41.0108 10.8228C40.7369 9.40499 39.5286 8.30941 38.0947 8.16844C36.0888 7.97108 34.4053 9.56202 34.4455 11.5356C34.4778 13.175 35.7586 14.5847 37.3858 14.7619C37.8651 14.8143 38.3283 14.7619 38.7553 14.629L40.2898 17.0819C43.3268 21.9354 42.2272 28.2953 37.7402 31.8478L28.9999 37.4504L20.2597 31.8478C15.7728 28.2953 14.6732 21.9354 17.7101 17.0819L19.2447 14.629C19.6717 14.7619 20.1348 14.8143 20.6142 14.7619C22.2413 14.5806 23.5262 13.1709 23.5544 11.5316C23.5947 9.56202 21.9071 7.97108 19.9053 8.16844C18.4713 8.30941 17.263 9.409 16.9892 10.8228C16.8401 11.588 16.9649 12.309 17.2711 12.9293C8.88929 22.4953 10.0774 30.1762 18.419 36.1897C18.419 36.1897 27.0948 41.6916 28.2508 42.6664C29.4028 43.6411 29.8378 45.3449 29.004 46.67L21.903 43.7499C20.1912 39.1944 17.2711 38.0505 8.8208 39.3233C13.4246 46.8875 16.2078 48.2328 21.1136 46.3356L25.9549 49.1954C28.2588 50.5568 31.2596 49.727 32.484 47.3466C33.5715 45.2361 33.7971 42.7389 32.6411 40.6686C35.5693 38.7353 39.5809 36.1897 39.5809 36.1897Z" fill="currentColor"/>
</g>
</svg>
