<svg width="58" height="58" viewBox="0 0 58 58" fill="none" xmlns="http://www.w3.org/2000/svg">
<path d="M29.0001 21.049L33.0238 16.6949C31.7591 14.2863 29.0001 14.4958 29.0001 14.4958C29.0001 14.4958 26.241 14.2863 24.9763 16.6949L29.0001 21.049Z" fill="currentColor"/>
<path d="M32.2101 44.0396H25.7898C25.4676 44.6518 25.4032 44.7766 25.0769 45.3888L27.9528 49.5938C28.2065 49.9644 28.6093 50.1497 29.012 50.1457C29.4148 50.1497 29.8176 49.9684 30.0714 49.5938L32.9472 45.3888C32.625 44.7766 32.5605 44.6518 32.2343 44.0396H32.206H32.2101Z" fill="currentColor"/>
<path d="M24.9882 21.0451C24.9882 18.858 23.4054 17.0375 21.327 16.6548C21.5244 13.0902 24.1464 10.8065 25.6488 10.3594L24.3559 7.8501C23.22 8.23274 20.1066 9.70285 18.278 13.928C11.902 13.9562 9.02613 18.3062 8.07962 20.0623C9.8116 20.6222 9.84785 21.7661 9.39673 22.6522C3.97129 33.2775 15.5189 38.8438 15.9096 37.9778C16.3004 37.1119 9.31212 31.8637 12.0631 25.7858C13.2191 23.2282 14.5522 21.9312 16.0707 21.3351C16.2197 23.6632 18.1571 25.5119 20.5214 25.5119C22.8857 25.5119 24.9882 23.5101 24.9882 21.0451ZM20.5214 23.1315C19.3695 23.1315 18.431 22.193 18.431 21.0451C18.431 19.8972 19.3695 18.9547 20.5214 18.9547C21.6734 18.9547 22.6119 19.8932 22.6119 21.0451C22.6119 22.1971 21.6734 23.1315 20.5214 23.1315Z" fill="currentColor"/>
<path d="M48.6032 22.6561C48.1481 21.766 48.1843 20.6221 49.9203 20.0662C48.9737 18.3101 46.0979 13.9601 39.7219 13.9319C37.8933 9.71082 34.7798 8.23664 33.644 7.854L32.3511 10.3633C33.8575 10.8103 36.4796 13.0941 36.6729 16.6587C34.5946 17.0373 33.0117 18.8619 33.0117 21.049C33.0117 23.51 35.0134 25.5158 37.4784 25.5158C39.9434 25.5158 41.7802 23.6671 41.9292 21.339C43.4477 21.9351 44.7808 23.2361 45.9368 25.7897C48.6837 31.8676 41.6956 37.1158 42.0903 37.9818C42.4809 38.8477 54.0327 33.2853 48.6032 22.6561ZM37.4784 23.1353C36.3265 23.1353 35.3881 22.1969 35.3881 21.049C35.3881 19.9011 36.3265 18.9586 37.4784 18.9586C38.6304 18.9586 39.5689 19.8971 39.5689 21.049C39.5689 22.201 38.6304 23.1353 37.4784 23.1353Z" fill="currentColor"/>
<path d="M34.6992 35.3116L25.4554 30.4541C24.8916 30.1561 24.9278 29.3344 25.5158 29.0887L25.9791 28.8954C27.0706 28.4402 26.7443 26.813 25.5642 26.813H23.4013C20.4812 26.813 19.4178 30.6636 21.9312 32.1579C25.7132 34.4094 29.5033 36.661 30.6513 37.3215C31.0822 37.5672 31.2152 38.1271 30.9453 38.5419C30.3291 39.4885 31.3843 40.6363 32.3792 40.0966C33.1566 39.6777 33.9662 39.2387 34.7233 38.8279C36.125 38.0666 36.1129 36.0527 34.6992 35.3116Z" fill="currentColor"/>
<path d="M37.5712 29.2415C37.5712 29.2415 36.1897 28.5206 33.4025 27.0585C31.3282 25.971 31.0301 24.1545 31.0141 23.2925H26.8091V25.3627C26.8091 26.2972 27.3125 27.1591 28.1301 27.6143C29.8541 28.5729 32.6856 30.1518 32.9917 30.329C33.4347 30.5827 33.6442 31.2111 33.3622 31.6864C32.5083 33.1243 34.188 34.7233 35.5856 33.805L37.6599 32.4356C38.8239 31.6662 38.7756 29.9464 37.5753 29.2415H37.5712Z" fill="currentColor"/>
<path d="M27.6709 41.756C27.981 42.2554 28.561 42.5293 29.149 42.5293H30.2285C30.6273 42.5293 30.9495 42.2072 30.9495 41.8084C30.9495 41.1277 30.5829 40.4993 29.9868 40.1651C28.7261 39.4642 26.6559 38.3083 26.4303 38.1793C26.104 37.9941 25.951 37.5349 26.1604 37.1885C26.7848 36.1373 25.5563 34.9692 24.5373 35.6418L23.0228 36.6408C22.1729 37.2006 22.2052 38.4613 23.0873 38.9728C23.0873 38.9728 24.0942 39.5004 26.1323 40.5678C27.0103 41.027 27.4534 41.4016 27.6709 41.756Z" fill="currentColor"/>
</svg>
