<svg width="12" height="11" viewBox="0 0 12 11" fill="none" xmlns="http://www.w3.org/2000/svg">
<path d="M6.18017 9.21267C6.06651 9.15508 5.93222 9.15508 5.81857 9.21267L3.0065 10.6376C2.71218 10.7867 2.37403 10.5354 2.43191 10.2106L2.9623 7.2341C2.98602 7.10103 2.94092 6.96498 2.8424 6.87242L0.608474 4.77348C0.3637 4.54349 0.494216 4.13247 0.82683 4.08584L3.94013 3.64931C4.06915 3.63122 4.18127 3.55143 4.24064 3.43546L5.64344 0.695273C5.79203 0.40502 6.20682 0.404963 6.35549 0.695175L7.75934 3.43555C7.81872 3.55147 7.93082 3.63122 8.0598 3.6493L11.1732 4.08584C11.5058 4.13247 11.6363 4.54349 11.3915 4.77347L9.15754 6.87247C9.05906 6.965 9.01395 7.101 9.03762 7.23404L9.56713 10.2109C9.6249 10.5357 9.28679 10.7868 8.99251 10.6377L6.18017 9.21267Z" fill="url(#paint0_linear_1620_44685)"/>
<defs>
<linearGradient id="paint0_linear_1620_44685" x1="6" y1="0" x2="6" y2="11" gradientUnits="userSpaceOnUse">
<stop stop-color="#CDAB61"/>
<stop offset="1" stop-color="#9B7518"/>
</linearGradient>
</defs>
</svg>
