<svg width="58" height="58" viewBox="0 0 58 58" fill="none" xmlns="http://www.w3.org/2000/svg">
<path d="M45.9674 20.2301C46.8296 27.1275 46.8468 34.0336 45.4242 40.8792C44.7603 44.0693 44.7 44.0607 41.3979 44.0607C40.0098 44.0607 38.6216 44.0003 37.2422 44.0779C36.3541 44.1296 35.8023 43.8106 35.6471 42.9916C35.104 40.1291 34.5436 37.2667 34.1297 34.3784C33.9055 32.8179 34.0262 32.8006 32.4312 32.8006C29.6636 32.8006 26.896 32.8006 24.1802 32.8006C23.775 35.6372 23.4818 38.2755 22.9904 40.8792C22.3869 44.0693 22.3093 44.052 19.0761 44.052C17.6104 44.052 16.1447 44.0089 14.6876 44.0693C13.8858 44.1038 13.4116 43.8106 13.265 43.0864C12.7219 40.4999 12.0235 37.9133 11.7562 35.2923C11.1699 29.5244 11.3251 23.7478 12.3598 18.0229C12.5494 16.9797 12.9029 15.971 13.2047 14.9536C13.4289 14.2121 13.8772 13.8931 14.7307 13.919C16.7655 13.988 18.8175 13.9793 20.8522 13.919C21.6454 13.8931 22.1282 14.1604 22.292 14.8846C22.7748 16.9883 23.2577 19.092 23.6543 21.213C23.8439 22.2562 23.8008 23.3339 23.956 24.3858C23.9991 24.6703 24.3957 25.1273 24.6458 25.1359C27.7237 25.1876 30.7931 25.1704 33.8711 25.1704C34.1728 22.8253 34.4056 20.5664 34.7763 18.3247C34.9746 17.1349 35.3799 15.9796 35.7247 14.8156C35.9144 14.1518 36.3455 13.8845 37.0956 13.9017C39.1734 13.9535 41.2513 13.9535 43.3378 13.9017C44.0706 13.8845 44.5448 14.1259 44.7172 14.7984C45.1656 16.609 45.7346 18.4023 45.9674 20.2301ZM53.8132 25.4118C53.6408 23.3512 53.1838 21.2992 52.7613 19.2645C52.6665 18.8161 52.1837 18.1436 51.8388 18.1092C50.3386 17.9798 48.8212 18.0574 47.2779 18.0574C48.3815 25.4204 48.3815 32.6023 47.2779 39.9567C48.3556 39.9567 49.3471 39.9567 50.3472 39.9567C52.4251 39.9567 52.5544 39.8964 53.0631 37.853C54.0718 33.7577 54.1667 29.5761 53.8132 25.4118ZM10.7044 18.0402C9.65252 18.0402 8.66102 18.0402 7.66089 18.0402C5.57442 18.0402 5.4451 18.1005 4.93641 20.1353C3.91905 24.2392 3.83283 28.4208 4.18632 32.6023C4.35876 34.6371 4.79847 36.6459 5.21231 38.6548C5.30715 39.1118 5.7641 39.8274 6.10035 39.8619C7.6264 39.9912 9.1697 39.9222 10.713 39.9222C9.59217 32.5247 9.60941 25.3342 10.7044 18.0402Z" fill="currentColor"/>
</svg>
