<svg width="58" height="58" viewBox="0 0 58 58" fill="none" xmlns="http://www.w3.org/2000/svg">
<path d="M25.0527 41.5034L29 51.0613L32.9472 41.5034L29 37.5562L25.0527 41.5034Z" fill="currentColor"/>
<path d="M33.0759 19.4555L37.7038 24.0834L40.9019 20.6759L46.9879 23.2778L50.1457 17.4577L45.1512 8.93896L34.6588 11.843V15.327H37.9495V13.9334L41.0067 13.1963L43.1776 17.2644H35.267L33.0759 19.4555Z" fill="currentColor"/>
<path d="M17.0978 20.6759L20.2958 24.0834L24.9237 19.4555L22.7326 17.2644H14.8221L16.9931 13.1963L20.0501 13.9334V15.327H23.3408V11.843L12.8484 8.93896L7.854 17.4577L11.0118 23.2778L17.0978 20.6759Z" fill="currentColor"/>
<path d="M35.7304 26.1816L29 19.4512L22.2695 26.1816L26.3739 30.5517L23.353 33.4276V39.3645L29 33.351L34.6469 39.3645V33.4276L31.6261 30.5517L35.7304 26.1816Z" fill="currentColor"/>
<path d="M41.6309 24.1074L37.5347 28.4735V47.8431L38.9645 46.6066L42.4083 30.3545H43.3307V38.5349L44.7324 37.2984L49.3079 27.7123L49.4368 27.4424L41.6269 24.1074H41.6309Z" fill="currentColor"/>
<path d="M8.55903 27.4424L8.68791 27.7123L13.2634 37.2984L14.6651 38.5349V30.3545H15.5874L19.0312 46.6066L20.4611 47.8431V28.4735L16.3648 24.1074L8.55493 27.4424H8.55903Z" fill="currentColor"/>
</svg>
