<svg width="58" height="58" viewBox="0 0 58 58" fill="none" xmlns="http://www.w3.org/2000/svg">
<mask id="mask0_1824_2237" style="mask-type:luminance" maskUnits="userSpaceOnUse" x="8" y="7" width="42" height="44">
<path d="M49.743 7.6123H8.29712V50.4276H49.743V7.6123Z" fill="white"/>
</mask>
<g mask="url(#mask0_1824_2237)">
<mask id="mask1_1824_2237" style="mask-type:luminance" maskUnits="userSpaceOnUse" x="8" y="7" width="42" height="44">
<path d="M49.763 7.59033H8.31714V50.4056H49.763V7.59033Z" fill="white"/>
</mask>
<g mask="url(#mask1_1824_2237)">
<path d="M36.8741 7.59033L34.2157 10.2487V12.9876L15.8088 31.4348C13.9963 33.2473 13.4727 35.8251 14.238 38.0806L8.31714 44.0014C8.84075 44.807 9.44492 45.5723 10.1699 46.257C12.6269 48.7139 15.7282 50.0834 18.9505 50.4056V42.3501C19.4338 42.4709 19.9574 42.5112 20.4407 42.5112C22.0921 42.5112 23.7838 41.8667 25.0324 40.6181L32.2824 33.3278V27.4473L40.4588 19.2709H43.1977L45.856 16.6126L36.8741 7.59033ZM23.0185 38.6445C22.3338 39.3292 21.4074 39.732 20.4005 39.732C19.3935 39.732 18.5074 39.3695 17.7824 38.6445L24.4282 31.9987L27.0463 34.6167L23.0185 38.6445Z" fill="currentColor"/>
<path d="M42.231 31.4347L37.5587 26.7222L35.5046 28.7763V34.6569L31.3157 38.8861L33.0476 40.618C34.2962 41.9069 35.9879 42.5111 37.6393 42.5111C38.1226 42.5111 38.6462 42.4305 39.1296 42.3499V50.4458C42.3115 50.1236 45.4532 48.7138 47.9102 46.2972C48.6352 45.5722 49.2393 44.8472 49.7629 44.0416L43.8018 38.0805C44.5671 35.8249 44.0435 33.2069 42.231 31.4347Z" fill="currentColor"/>
<path d="M23.8241 13.0276V10.2887C23.0991 9.5637 22.0116 8.4762 21.1658 7.63037L12.1838 16.6123L14.8422 19.2706H17.5811L20.4811 22.1706L26.7241 15.9276C24.9922 14.1554 23.8241 13.0276 23.8241 13.0276Z" fill="currentColor"/>
</g>
</g>
</svg>
