<svg width="58" height="58" viewBox="0 0 58 58" fill="none" xmlns="http://www.w3.org/2000/svg">
<path d="M16.0506 37.543C15.9056 31.8438 19.4622 26.9098 24.5331 25.0409C25.1373 24.8193 25.1414 23.9614 24.5492 23.7157C21.2102 22.3382 17.7262 22.3785 14.9792 24.1588C9.77937 27.53 9.19135 35.8635 13.6702 42.7711C15.8614 46.1504 18.862 48.563 21.9594 49.7473C22.765 50.0534 23.3167 48.8974 22.5676 48.4664C18.7694 46.2874 16.1675 42.2354 16.0506 37.539V37.543Z" fill="currentColor"/>
<path d="M40.3101 42.5653C35.6701 46.3757 29.3989 46.7623 24.7387 43.9751C24.1829 43.6448 23.3734 44.2248 23.6311 44.8209C26.4787 51.3983 35.1787 51.2976 40.6001 47.0845C45.4818 43.2944 48.6637 35.6416 46.8029 29.9907C46.533 29.1649 45.2643 29.471 45.369 30.337C45.8926 34.7474 44.1325 39.4277 40.3101 42.5653Z" fill="currentColor"/>
<path d="M40.5233 29.6043C40.9181 30.2488 41.8122 30.2609 42.2633 29.6567C47.4309 22.745 42.0781 11.008 30.8567 7.99127C29.8739 7.72544 29.3543 9.12714 30.2767 9.55805C32.0892 10.4039 33.7204 11.5962 35.0737 13.0582C35.4202 13.4368 34.965 14.0048 34.5179 13.7469C33.8533 13.3684 33.1606 13.0139 32.4396 12.6917C28.1057 10.7584 23.5986 10.3032 19.7762 11.1209C18.7693 11.3343 18.9948 12.8287 20.0219 12.7723C21.9633 12.6675 23.9047 12.9414 25.7414 13.5617C26.2046 13.7188 26.12 14.4075 25.6286 14.4357C23.9692 14.5243 22.2654 14.8023 20.5536 15.2937C17.6858 16.1153 13.7225 17.9439 12.3289 20.3888C11.8415 21.2507 12.6994 21.8669 13.5694 21.4723C16.0868 19.9296 19.0392 19.12 22.0842 19.2328C29.9544 19.2167 37.3052 24.3723 40.5193 29.6043H40.5233Z" fill="currentColor"/>
</svg>
