<svg width="58" height="58" viewBox="0 0 58 58" fill="none" xmlns="http://www.w3.org/2000/svg">
<mask id="mask0_1824_2268" style="mask-type:luminance" maskUnits="userSpaceOnUse" x="7" y="7" width="44" height="44">
<path d="M50.0734 7.854H7.85425V50.0732H50.0734V7.854Z" fill="white"/>
</mask>
<g mask="url(#mask0_1824_2268)">
<path d="M46.3719 11.5558C40.0724 5.25635 27.9247 7.19371 19.2368 15.8776C18.4312 16.6832 17.6861 17.5169 16.9973 18.3748C18.5037 17.5975 23.0994 15.5312 29.0846 15.6601L28.7584 20.3323L36.4353 15.8212L23.0712 34.4658C22.8859 34.7236 23.2041 35.0418 23.4619 34.8565L42.1065 21.4923L37.5953 29.1693L42.2676 28.843C42.3965 34.8243 40.3302 39.424 39.5528 40.9304C40.4108 40.2416 41.2445 39.4965 42.0501 38.6909C50.738 30.003 52.6713 17.8552 46.3719 11.5558Z" fill="currentColor"/>
<path d="M31.7269 32.3228L23.7317 36.3385C23.4941 36.4794 23.2283 36.5479 22.9504 36.5398C22.3784 36.5278 21.8467 36.1934 21.5729 35.6739C21.3191 35.1946 21.3272 34.6387 21.593 34.1957L25.6087 26.2005C21.0613 24.5008 15.3137 25.826 11.1731 29.9665C9.71508 31.4286 8.60744 33.088 7.85425 34.824C11.1852 32.5886 15.1526 31.9764 18.5158 33.0679L8.53091 48.9494C8.35369 49.2273 8.69605 49.5697 8.97397 49.3925L24.8595 39.4116C25.9511 42.7748 25.3388 46.7422 23.1034 50.0732C24.8394 49.324 26.5029 48.2164 27.9609 46.7543C32.1015 42.6137 33.4226 36.8661 31.7269 32.3187V32.3228Z" fill="currentColor"/>
</g>
</svg>
