<svg width="58" height="58" viewBox="0 0 58 58" fill="none" xmlns="http://www.w3.org/2000/svg">
<path d="M46.027 20.4381C46.027 18.9833 47.3184 17.8035 48.9167 17.8035H48.9366C46.7565 12.65 41.7823 8.67627 35.162 8.67627L34.6957 8.68424L41.4435 15.4321V18.8119L36.8081 23.4473L33.9543 21.9088V17.1499L30.4788 13.8577V29.0034L38.5817 26.03L34.6996 31.5742L30.4788 30.518V51.1759L33.9543 47.3017V36.5643L41.4435 29.0751V34.1489L37.0353 38.5571V42.8975L45.7401 34.1928C48.9725 30.9604 50.3077 26.9428 50.1363 23.0567H48.9167C47.3224 23.0567 46.027 21.8769 46.027 20.4221V20.4381Z" fill="currentColor"/>
<path d="M23.8706 21.9128L21.0169 23.4513L16.3815 18.8159V15.436L23.1293 8.68424L22.663 8.67627C16.0427 8.67627 11.0685 12.65 8.88839 17.8035H8.90827C10.5026 17.8035 11.7979 18.9833 11.7979 20.4381C11.7979 21.8928 10.5066 23.0726 8.90827 23.0726H7.69265C7.51727 26.9587 8.85649 30.9763 12.0889 34.2087L20.7937 42.9135V38.573L16.3855 34.1649V29.0911L23.8747 36.5802V47.3177L27.3501 51.1918V30.5219L23.1293 31.5782L19.2472 26.034L27.3501 29.0073V13.8616L23.8747 17.1539V21.9128H23.8706Z" fill="currentColor"/>
</svg>
