<svg width="58" height="58" viewBox="0 0 58 58" fill="none" xmlns="http://www.w3.org/2000/svg">
<path d="M29.0119 18.1815C30.7003 18.1815 32.0691 16.8128 32.0691 15.1244C32.0691 13.4361 30.7003 12.0674 29.0119 12.0674C27.3235 12.0674 25.9548 13.4361 25.9548 15.1244C25.9548 16.8128 27.3235 18.1815 29.0119 18.1815Z" fill="currentColor"/>
<path d="M50.1378 28.666C48.4824 28.4324 47.0163 27.2844 46.4644 25.5847C45.82 23.599 46.6215 21.4965 48.285 20.405C47.6043 18.9066 46.7544 17.501 45.7555 16.2161L40.3785 21.5972C41.8003 23.7199 42.626 26.2735 42.626 29.0204C42.626 32.6011 41.2163 35.8475 38.9244 38.248V29.842L34.949 25.8666V22.9586C35.3035 22.6887 35.6418 22.3947 35.964 22.0765C39.7985 18.242 39.7985 11.999 35.964 8.16455L33.1526 10.976C35.4404 13.2637 35.4404 16.9774 33.1526 19.2651C32.5163 19.9015 31.767 20.3526 30.9736 20.6345V49.8279C32.633 49.691 34.2401 49.3647 35.7667 48.8612C35.2874 47.1011 35.9036 45.1476 37.4704 44.0117C39.291 42.6866 41.764 42.9243 43.3148 44.4629C44.4264 43.4479 45.4293 42.312 46.2993 41.0795C44.9661 39.9236 44.378 38.0426 44.958 36.2583C45.6307 34.192 47.6486 32.9394 49.7269 33.1569C49.9968 31.8197 50.1378 30.4381 50.1378 29.0204C50.1378 28.8995 50.1298 28.7827 50.1298 28.666H50.1378Z" fill="currentColor"/>
<path d="M27.0223 20.6344C26.2369 20.3525 25.4958 19.9014 24.8675 19.269C22.5797 16.9812 22.5797 13.2676 24.8675 10.9799L22.0561 8.16846C20.1992 10.0253 19.1762 12.4984 19.1762 15.1244C19.1762 17.7505 20.1992 20.2236 22.0561 22.0804C22.3702 22.3946 22.7005 22.6805 23.0469 22.9424V25.8665L19.0715 29.8419V38.2479C16.7797 35.8514 15.37 32.601 15.37 29.0203C15.37 26.2734 16.1997 23.7237 17.6175 21.5971L12.2403 16.216C11.2415 17.5009 10.3916 18.9025 9.71095 20.4049C11.3744 21.4964 12.176 23.5989 11.5315 25.5846C10.9797 27.2843 9.51759 28.4281 7.85816 28.6659C7.85816 28.7826 7.8501 28.9035 7.8501 29.0203C7.8501 30.438 7.99107 31.8196 8.26093 33.1568C10.3392 32.9393 12.3612 34.1919 13.0298 36.2581C13.6098 38.0425 13.0217 39.9235 11.6886 41.0794C12.5626 42.3119 13.5615 43.4478 14.6732 44.4628C16.2198 42.9281 18.6969 42.6905 20.5175 44.0116C22.0842 45.1475 22.7005 47.101 22.2212 48.8611C23.7477 49.3605 25.3548 49.6908 27.0142 49.8277V20.6344H27.0223Z" fill="currentColor"/>
</svg>
