<svg width="58" height="58" viewBox="0 0 58 58" fill="none" xmlns="http://www.w3.org/2000/svg">
<path d="M40.6429 43.2953L25.5964 35.3462C24.5368 34.7864 24.1316 33.4694 24.6922 32.4082C25.2529 31.3469 26.5692 30.9394 27.6287 31.4992L42.6679 39.4444C43.7274 40.0041 44.1327 41.3211 43.5721 42.3824C43.0188 43.4475 41.695 43.8512 40.6429 43.2953Z" fill="currentColor"/>
<path d="M31.5944 48.1495C31.5944 48.1495 33.1791 49.9954 31.3501 51.48C29.5211 52.9647 29.3701 53.0545 27.4501 52.0214L25.0663 50.762C23.0208 49.6814 22.0515 47.4724 22.908 45.8511L23.4258 44.871L31.17 30.2124L33.763 25.3041L34.931 23.0932L37.5242 18.1849L44.4739 5.02979C63.5313 24.5906 40.3864 38.7579 40.3864 38.7579L38.5681 42.1996L36.633 41.1773L31.5944 48.1495Z" fill="currentColor"/>
<path d="M27.866 28.0785L32.2353 20.3109C20.5838 16.9126 12.3307 18.8545 3.10669 25.1657C13.593 21.2819 23.9822 25.4893 27.866 28.0785Z" fill="currentColor"/>
<path d="M29.3224 25.6506L35.623 14.6693C29.3225 8.65895 23.011 8.65889 12.8162 12.0572C22.0402 13.0282 28.2256 21.0118 29.3224 25.6506Z" fill="currentColor"/>
</svg>
