<svg width="58" height="58" viewBox="0 0 58 58" fill="none" xmlns="http://www.w3.org/2000/svg">
<mask id="mask0_1824_2133" style="mask-type:luminance" maskUnits="userSpaceOnUse" x="11" y="7" width="36" height="44">
<path d="M46.0214 7.6084H11.9827V50.3955H46.0214V7.6084Z" fill="white"/>
</mask>
<g mask="url(#mask0_1824_2133)">
<path d="M41.9936 14.6046V32.3509C41.9936 33.9419 41.5949 35.4403 40.8095 36.7936C40.0402 38.1228 38.8802 39.4036 37.261 40.7126C36.2943 41.494 32.3471 43.8422 29.0041 45.7594C25.661 43.8422 21.7098 41.494 20.7471 40.7126C19.1279 39.4076 17.9679 38.1228 17.1986 36.7936C16.4132 35.4362 16.0145 33.9419 16.0145 32.3509V14.6046L11.9827 10.5728V32.3509C11.9827 34.6589 12.5627 36.8339 13.7066 38.8115C14.7296 40.5757 16.1997 42.223 18.2096 43.8462C20.1631 45.4251 29 50.3914 29 50.3914C29 50.3914 37.8329 45.4211 39.7904 43.8462C41.8003 42.223 43.2745 40.5757 44.2935 38.8115C45.4374 36.8339 46.0174 34.6589 46.0174 32.3509V10.5728L41.9896 14.6046H41.9936Z" fill="currentColor"/>
<path d="M34.079 22.5273L34.0428 22.4548L31.3764 14.6046L29 7.6084L26.6236 14.6046L23.9572 22.4548L23.921 22.5273L20.0342 18.6365V32.351C20.0342 33.2372 20.2436 34.0306 20.6746 34.7798C21.1942 35.674 22.04 36.5923 23.2685 37.5831C23.7317 37.9496 25.8261 39.2587 28.996 41.1115C32.1658 39.2587 34.2643 37.9496 34.7275 37.5831C35.952 36.5923 36.8018 35.678 37.3174 34.7838C37.7483 34.0387 37.9578 33.2452 37.9578 32.3551V18.6365L34.071 22.5273H34.079Z" fill="currentColor"/>
</g>
</svg>
