<svg width="58" height="58" viewBox="0 0 58 58" fill="none" xmlns="http://www.w3.org/2000/svg">
<path d="M44.3982 7.89831C44.1767 7.87012 43.9552 7.854 43.7417 7.854C41.2969 7.854 39.1702 9.66246 38.8399 12.1516C38.7755 12.6228 38.7875 13.0861 38.856 13.5372L37.0838 14.2823C34.9088 10.5486 30.8609 8.03928 26.229 8.03928C19.2931 8.03928 13.6704 13.6621 13.6704 20.5978C13.6704 21.7578 13.8315 22.8776 14.1255 23.941L9.31226 25.9669L10.5649 28.9394L15.3781 26.9135L18.3466 25.6648C17.7666 24.7666 17.3396 23.7637 17.094 22.6923C16.9409 22.0197 16.8563 21.3188 16.8563 20.5978C16.8563 15.4262 21.0654 11.2172 26.237 11.2172C29.5438 11.2172 32.4519 12.9371 34.1234 15.531C34.7034 16.4291 35.1304 17.4321 35.376 18.5035C35.5291 19.1761 35.6136 19.8769 35.6136 20.5978C35.6136 22.3782 35.1102 24.0457 34.2442 25.4635C33.7649 26.2448 33.1809 26.9577 32.5002 27.566C32.4438 27.6143 32.3874 27.6666 32.331 27.715C32.2746 27.7552 32.2223 27.7834 32.1659 27.8157V40.4508L37.5591 35.7826L35.4244 29.1448C37.5107 26.9013 38.7916 23.9007 38.7916 20.5978C38.7916 19.4378 38.6305 18.3182 38.3365 17.2548L40.3584 16.405C41.0874 17.0937 42.0299 17.5731 43.0973 17.714C43.3188 17.7422 43.5404 17.7583 43.7538 17.7583C46.1986 17.7583 48.3254 15.9498 48.6556 13.4607C49.0141 10.75 47.109 8.26081 44.3982 7.90233V7.89831ZM46.0215 13.1102C45.8684 14.2461 44.8936 15.104 43.7498 15.104C43.6491 15.104 43.5444 15.096 43.4396 15.0838C42.8315 15.0033 42.2917 14.6891 41.9171 14.2018C41.5425 13.7144 41.3815 13.1102 41.466 12.5021C41.6191 11.3662 42.5938 10.5083 43.7377 10.5083C43.8384 10.5083 43.9431 10.5163 44.0479 10.5285C44.656 10.609 45.1957 10.9232 45.5704 11.4106C45.9449 11.8978 46.106 12.5021 46.0215 13.1102Z" fill="currentColor"/>
<path d="M16.6226 35.7869L22.0158 40.4551V50.146L29.6082 45.6711V15.5796L22.0158 19.0031L16.6226 35.7869Z" fill="currentColor"/>
</svg>
