<svg width="58" height="58" viewBox="0 0 58 58" fill="none" xmlns="http://www.w3.org/2000/svg">
<mask id="mask0_1824_2166" style="mask-type:luminance" maskUnits="userSpaceOnUse" x="10" y="7" width="40" height="44">
<path d="M49.8529 7.47949H10.1431V50.5163H49.8529V7.47949Z" fill="white"/>
</mask>
<g mask="url(#mask0_1824_2166)">
<path d="M40.9072 29.8781C39.1511 28.8631 36.9076 29.4672 35.8966 31.2193C34.8816 32.9755 35.4857 35.2189 37.2379 36.2339C38.994 37.2489 41.2374 36.6447 42.2524 34.8926C43.2674 33.1365 42.6632 30.8931 40.9112 29.8821L40.9072 29.8781Z" fill="currentColor"/>
<path d="M19.8015 16.0507C19.8015 18.0767 21.4448 19.72 23.4708 19.72C25.4968 19.72 27.1401 18.0767 27.1401 16.0507C27.1401 14.0247 25.4968 12.3813 23.4708 12.3813C21.4448 12.3813 19.8015 14.0247 19.8015 16.0507Z" fill="currentColor"/>
<path d="M18.3798 41.2405C20.136 40.2255 20.7361 37.982 19.7211 36.23C18.7061 34.4738 16.4626 33.8737 14.7065 34.8887C12.9504 35.9037 12.3503 38.1471 13.3653 39.9033C14.3803 41.6594 16.6237 42.2595 18.3798 41.2445V41.2405Z" fill="currentColor"/>
<path d="M46.377 22.1812C44.2463 20.5822 41.7007 20.119 39.3606 20.5943L39.3726 20.5822L25.2674 23.2687C24.8928 23.3412 24.5101 23.3855 24.1275 23.4056C24.1275 23.4056 24.1356 23.4016 24.1396 23.3977C23.9221 23.4178 23.7006 23.4298 23.475 23.4298C19.403 23.4298 16.0921 20.119 16.0921 16.0469C16.0921 11.9748 19.3989 8.66804 23.471 8.66804C23.475 8.66804 23.4831 8.66804 23.4871 8.66804C21.8881 7.73762 19.9749 7.29054 17.9408 7.55637C14.0178 8.06387 10.8762 11.2337 10.4008 15.1608C10.0826 17.803 10.9526 20.2398 12.5356 22.0322H12.5195L21.9001 32.8991C22.1499 33.1891 22.3795 33.4953 22.5889 33.8174C22.5889 33.8174 22.5808 33.8174 22.5768 33.8174C22.7017 33.9987 22.8265 34.1799 22.9393 34.3773C24.9733 37.9016 23.761 42.4289 20.2367 44.4629C16.7124 46.4969 12.1851 45.2846 10.1512 41.7603C10.1512 41.7562 10.1471 41.7522 10.1431 41.7481C10.139 43.5969 10.707 45.4739 11.9515 47.1052C14.3562 50.2468 18.6699 51.3866 22.307 49.8319C24.7558 48.7847 26.4314 46.8152 27.1926 44.5474V44.5636L31.9253 31.0021C32.0501 30.6396 32.2032 30.2891 32.3764 29.9468C32.3764 29.9468 32.3764 29.9548 32.3764 29.9589C32.469 29.7574 32.5657 29.5602 32.6785 29.3668C34.7125 25.8424 39.2398 24.6302 42.764 26.6641C46.2883 28.6981 47.5007 33.2254 45.4667 36.7497C45.4667 36.7537 45.4626 36.7578 45.4587 36.7618C47.0617 35.8435 48.407 34.4096 49.1924 32.5165C50.7108 28.8633 49.5428 24.5577 46.377 22.1853V22.1812Z" fill="currentColor"/>
</g>
</svg>
